<svg xmlns="http://www.w3.org/2000/svg" viewBox="0 0 1918.69 1193.55"><defs><style>.cls-1{font-size:137.97px;font-family:Corbel;}.cls-2{font-size:778.46px;fill:#0a51a1;font-family:Corbel-Bold, Corbel;font-weight:700;}.cls-3{fill:#ff0;}.cls-4{fill:red;}.cls-5{fill:#008736;}</style></defs><g id="Layer_2" data-name="Layer 2"><g id="Layer_2-2" data-name="Layer 2"><text class="cls-1" transform="translate(42.77 1160.54)">Bangladesh Internet Exchange</text><text class="cls-2" transform="translate(0 981.92)">BDIX</text><path class="cls-3" d="M688.22,371.6c10-9.15,21-17.13,32.36-24.65a402.91,402.91,0,0,1,35.26-20.69,502.73,502.73,0,0,1,75.64-31.89c52.21-17.2,107.18-26,162.33-28.31l2.59-.13,2.58,0,5.17-.07,10.36-.12,10.36-.11,10.35.29,10.35.31,5.18.17c1.72.07,3.46.08,5.17.24l20.66,1.52,5.16.4c1.72.13,3.45.24,5.16.47l10.28,1.2c6.85.81,13.71,1.59,20.56,2.49l20.43,3.29,10.22,1.68c3.4.59,6.75,1.36,10.14,2a901.27,901.27,0,0,1,158.07,47.1l9.6,3.76,4.74,1.88,4.59,1.85c6.12,2.44,12.21,5,18.38,7.28s12.28,4.79,18.49,7l9.29,3.36c3.08,1.15,6.22,2.12,9.33,3.21q37.32,12.84,75.53,22.41a783.09,783.09,0,0,0,77.11,15,653.6,653.6,0,0,0,78.16,6.14c13.07.11,26.16,0,39.22-.69s26.1-1.93,39.1-3.51,25.94-3.78,38.81-6.4,25.63-5.79,38.27-9.49,25.14-7.93,37.48-12.68c6.19-2.34,12.29-4.91,18.37-7.55s12.09-5.45,18-8.41c11.9-5.91,23.59-12.34,34.92-19.45,5.68-3.53,11.24-7.26,16.72-11.14,2.73-1.95,5.44-3.93,8.1-6s5.31-4.14,7.84-6.38a175.16,175.16,0,0,1-13.74,15c-4.84,4.77-9.9,9.33-15.07,13.77a347.29,347.29,0,0,1-32.77,24.58,410.35,410.35,0,0,1-72.95,38.22c-12.79,5.17-25.86,9.68-39.09,13.69s-26.7,7.29-40.26,10.12a517.21,517.21,0,0,1-82.47,10.12c-13.86.67-27.73.64-41.59.34l-10.39-.36c-3.46-.16-6.92-.4-10.38-.59l-5.19-.31-5.18-.42-10.35-.87-10.33-1.11-5.17-.56-5.14-.67-10.3-1.36-10.25-1.6c-6.85-1-13.64-2.31-20.45-3.52-3.41-.59-6.78-1.36-10.17-2s-6.77-1.37-10.15-2.11a824.34,824.34,0,0,1-79.79-21.89c-6.57-2.08-13-4.4-19.55-6.68s-12.93-4.7-19.38-7.09-12.8-5-19.19-7.54l-4.79-1.91-4.65-1.82-9.22-3.59a1016.7,1016.7,0,0,0-150.58-47.2c-3.2-.73-6.38-1.56-9.6-2.21l-9.67-1.87-19.33-3.81c-6.48-1.08-13-2-19.45-3.08l-9.73-1.55c-1.62-.29-3.25-.46-4.88-.65l-4.89-.57-19.55-2.35c-6.53-.66-13.08-1.06-19.62-1.66l-9.82-.83-9.83-.44-9.85-.44-4.92-.22-2.46-.11h-2.46c-52.51-1-105.33,3.4-157,14.89a580.89,580.89,0,0,0-76.35,22.5c-12.46,4.7-24.87,9.71-37,15.45A326,326,0,0,0,688.22,371.6Z"/><path class="cls-4" d="M688.22,238.8c10-9.15,21-17.12,32.36-24.65a405.44,405.44,0,0,1,35.26-20.69,502.73,502.73,0,0,1,75.64-31.89c52.21-17.2,107.18-26,162.33-28.31l2.59-.13,2.58,0,5.17-.07,10.36-.12,10.36-.11,10.35.29,10.35.31,5.18.17c1.72.07,3.46.08,5.17.24l20.66,1.52,5.16.4c1.72.13,3.45.24,5.16.47l10.28,1.2c6.85.81,13.71,1.59,20.56,2.49l20.43,3.29,10.22,1.68c3.4.59,6.75,1.36,10.14,2A902.13,902.13,0,0,1,1316.6,194l9.6,3.77,4.74,1.87,4.59,1.85c6.12,2.44,12.21,5,18.38,7.29s12.28,4.78,18.49,7l9.29,3.36c3.08,1.15,6.22,2.13,9.33,3.22q37.32,12.83,75.53,22.4a783.09,783.09,0,0,0,77.11,15,649.48,649.48,0,0,0,78.16,6.14c13.07.11,26.16,0,39.22-.69s26.1-1.93,39.1-3.51,25.94-3.78,38.81-6.39,25.63-5.8,38.27-9.5,25.14-7.93,37.48-12.68c6.19-2.34,12.29-4.91,18.37-7.55s12.09-5.45,18-8.41A399.34,399.34,0,0,0,1886,197.66c5.68-3.53,11.24-7.26,16.72-11.14,2.73-2,5.44-3.93,8.1-6s5.31-4.14,7.84-6.38a173.67,173.67,0,0,1-13.74,15c-4.84,4.77-9.9,9.33-15.07,13.77a345.58,345.58,0,0,1-32.77,24.58,409.7,409.7,0,0,1-72.95,38.22c-12.79,5.17-25.86,9.68-39.09,13.7s-26.7,7.28-40.26,10.11a517.21,517.21,0,0,1-82.47,10.12c-13.86.67-27.73.64-41.59.34l-10.39-.36c-3.46-.16-6.92-.4-10.38-.59l-5.19-.31-5.18-.42-10.35-.87-10.33-1.11-5.17-.56-5.14-.67-10.3-1.36-10.25-1.59c-6.85-1-13.64-2.32-20.45-3.53-3.41-.59-6.78-1.36-10.17-2s-6.77-1.37-10.15-2.11a824.34,824.34,0,0,1-79.79-21.89c-6.57-2.08-13-4.4-19.55-6.68s-12.93-4.7-19.38-7.09-12.8-5-19.19-7.54l-4.79-1.91-4.65-1.82-9.22-3.59a1016.7,1016.7,0,0,0-150.58-47.2c-3.2-.73-6.38-1.56-9.6-2.21l-9.67-1.87-19.33-3.81c-6.48-1.08-13-2-19.45-3.08l-9.73-1.55c-1.62-.29-3.25-.45-4.88-.65l-4.89-.57-19.55-2.35c-6.53-.65-13.08-1.06-19.62-1.66l-9.82-.83-9.83-.44-9.85-.44-4.92-.21-2.46-.12h-2.46c-52.51-1-105.33,3.4-157,14.89a580.89,580.89,0,0,0-76.35,22.5c-12.46,4.7-24.87,9.71-37,15.45A329.54,329.54,0,0,0,688.22,238.8Z"/><path class="cls-5" d="M688.22,106c10-9.15,21-17.12,32.36-24.65a405.34,405.34,0,0,1,35.26-20.68,502.77,502.77,0,0,1,75.64-31.9c52.21-17.2,107.18-26,162.33-28.31L996.4.33,999,.3l5.17-.06,10.36-.13L1024.87,0l10.35.29,10.35.31,5.18.18c1.72.06,3.46.08,5.17.23l20.66,1.53,5.16.39c1.72.14,3.45.25,5.16.47l10.28,1.2c6.85.81,13.71,1.59,20.56,2.49l20.43,3.29,10.22,1.68c3.4.59,6.75,1.36,10.14,2a903,903,0,0,1,158.07,47.1l9.6,3.77,4.74,1.87,4.59,1.85c6.12,2.44,12.21,5,18.38,7.29s12.28,4.78,18.49,7l9.29,3.36c3.08,1.15,6.22,2.13,9.33,3.22q37.32,12.83,75.53,22.4a783.09,783.09,0,0,0,77.11,15,649.48,649.48,0,0,0,78.16,6.14c13.07.11,26.16,0,39.22-.69s26.1-1.92,39.1-3.5,25.94-3.79,38.81-6.4,25.63-5.8,38.27-9.49,25.14-7.93,37.48-12.69c6.19-2.34,12.29-4.91,18.37-7.54s12.09-5.46,18-8.42A399.34,399.34,0,0,0,1886,64.86c5.68-3.52,11.24-7.26,16.72-11.14,2.73-1.95,5.44-3.93,8.1-6s5.31-4.14,7.84-6.38a172.21,172.21,0,0,1-13.74,15c-4.84,4.77-9.9,9.33-15.07,13.77a345.58,345.58,0,0,1-32.77,24.58,410.4,410.4,0,0,1-72.95,38.23c-12.79,5.16-25.86,9.67-39.09,13.69s-26.7,7.28-40.26,10.11a518.38,518.38,0,0,1-82.47,10.13c-13.86.66-27.73.63-41.59.33l-10.39-.36c-3.46-.16-6.92-.39-10.38-.59l-5.19-.31-5.18-.41-10.35-.88-10.33-1.11-5.17-.56-5.14-.67-10.3-1.36-10.25-1.59c-6.85-1-13.64-2.32-20.45-3.53-3.41-.59-6.78-1.36-10.17-2s-6.77-1.36-10.15-2.11a824.34,824.34,0,0,1-79.79-21.89c-6.57-2.08-13-4.4-19.55-6.68s-12.93-4.7-19.38-7.09-12.8-5-19.19-7.53l-4.79-1.92-4.65-1.82-9.22-3.59A1016.7,1016.7,0,0,0,1150.15,54c-3.2-.73-6.38-1.56-9.6-2.21l-9.67-1.87-19.33-3.81c-6.48-1.08-13-2-19.45-3.08l-9.73-1.55c-1.62-.28-3.25-.45-4.88-.64l-4.89-.58-19.55-2.35c-6.53-.65-13.08-1.06-19.62-1.65l-9.82-.84-9.83-.44-9.85-.43L999,34.28l-2.46-.11-2.46,0c-52.51-1-105.33,3.4-157,14.89a584,584,0,0,0-76.35,22.5c-12.46,4.7-24.87,9.71-37,15.45A329.54,329.54,0,0,0,688.22,106Z"/></g></g></svg>